<svg id="Layer_1" enable-background="new 0 0 512 512" height="512" viewBox="0 0 512 512" width="512" xmlns="http://www.w3.org/2000/svg"><g><path d="m268.117 426.559 3.733-3.556v-152.233c0-8.284-6.716-15-15-15s-15 6.716-15 15v152.233l2.812 9.69c-8.284 0-10.104-2.976-10.104 5.308s13.498-7.113 21.782-7.113l25.488 7.113c8.284 0 5.052 5.141 5.052-3.143s-10.479-8.299-18.763-8.299z" fill="#00485b"/><path d="m268.117 426.559 3.733-3.556v-152.233c0-8.284-6.716-15-15-15-.172 0-.339.02-.509.026v175.093l25.488 7.113c8.284 0 5.052 5.141 5.052-3.143s-10.48-8.3-18.764-8.3z" fill="#00303d"/><path d="m200.337 208.816h-109.558c-4.542 0-8.225-3.682-8.225-8.225v-40.048c0-4.542 3.682-8.225 8.225-8.225h36.939l128.622 38.645 127.941-38.645h36.939c4.542 0 8.225 3.682 8.225 8.225v40.051c0 4.542-3.682 8.225-8.225 8.225h-108.493z" fill="#d45c1e"/><path d="m496.275 57.763c-8.068.38-14.275 7.33-14.275 15.407v177.38h-94.256c-23.512 0-42.572 19.06-42.572 42.572v145.658c0 8.077 6.207 15.027 14.275 15.407 8.614.406 15.725-6.458 15.725-14.983v-115.804h106.828v115.38c0 8.077 6.207 15.027 14.275 15.407 8.614.406 15.725-6.458 15.725-14.983v-366.458c0-8.525-7.111-15.389-15.725-14.983z" fill="#71320e"/><path d="m15.725 57.763c8.068.38 14.275 7.33 14.275 15.407v177.38h94.256c23.512 0 42.572 19.06 42.572 42.572v145.658c0 8.077-6.207 15.027-14.275 15.407-8.614.406-15.725-6.458-15.725-14.983v-115.804h-106.828v115.38c0 8.077-6.207 15.027-14.275 15.407-8.614.405-15.725-6.459-15.725-14.984v-366.457c0-8.525 7.111-15.389 15.725-14.983z" fill="#a44613"/><path d="m136.829 323.4v115.854c0 8.525 7.111 15.389 15.725 14.983 8.068-.38 14.275-7.33 14.275-15.407v-115.38" fill="#ff8a3c"/><path d="m482 323.4v115.803c0 8.525 7.111 15.389 15.725 14.983 8.068-.38 14.275-7.33 14.275-15.407v-115.43" fill="#d45c1e"/><path d="m345.171 323.4v115.803c0 8.525 7.111 15.389 15.725 14.983 8.068-.38 14.275-7.33 14.275-15.407v-115.43" fill="#d45c1e"/><path d="m0 323.35v115.854c0 8.525 7.111 15.389 15.725 14.983 8.068-.381 14.275-7.33 14.275-15.407v-115.38" fill="#ff8a3c"/><path d="m221.472 453.003h69.056c8.284 0 15-6.716 15-15s-6.716-15-15-15h-18.678v-.003h-30v.004h-20.377c-8.284 0-15 6.716-15 15s6.715 14.999 14.999 14.999z" fill="#f6efea"/><path d="m30 250.549v-177.379c0-8.077-6.207-15.026-14.275-15.406-8.614-.407-15.725 6.457-15.725 14.982v177.803z" fill="#ff8a3c"/><path d="m512 250.549v-177.379c0-8.077-6.207-15.026-14.275-15.406-8.614-.407-15.725 6.457-15.725 14.982v177.803z" fill="#d45c1e"/><path d="m290.528 423.003h-18.678v-.003h-15.51v30.004h34.188c8.284 0 15-6.716 15-15s-6.716-15.001-15-15.001z" fill="#e3dff6"/><path d="m421.221 152.319h-36.939l-127.942 56.499 56.386.001h108.494c4.542 0 8.225-3.682 8.225-8.225v-40.051c0-4.542-3.682-8.224-8.224-8.224z" fill="#a44613"/><path d="m267.913 282.465 116.369-130.146h-256.564l118.314 130.232c5.876 6.467 16.057 6.427 21.881-.086z" fill="#ff3f5c"/><path d="m256.34 287.345c4.223.169 8.503-1.447 11.573-4.881l116.369-130.146h-127.942z" fill="#cd2f44"/></g></svg>